<svg xmlns="http://www.w3.org/2000/svg" viewBox="0 0 64 64" width="64" height="64">
  <rect width="64" height="64" rx="12" fill="#25D366"/>
  <path d="M32 10C19.85 10 10 19.85 10 32c0 3.87 1.01 7.5 2.77 10.65L10.5 53.5l11.17-2.23C24.78 52.98 28.31 54 32 54c12.15 0 22-9.85 22-22S44.15 10 32 10zm11.28 30.5c-.47 1.32-2.76 2.58-3.8 2.66-.98.08-1.95.44-6.56-1.37-5.92-2.31-9.71-8.3-10-8.68-.29-.38-2.37-3.15-2.37-6.01s1.5-4.26 2.03-4.84c.53-.58 1.16-.73 1.55-.73.39 0 .78.01 1.12.02.36.01.84-.13 1.31 1 .47 1.13 1.6 3.9 1.74 4.18.14.28.23.61.05.99-.19.38-.28.61-.56.94-.28.33-.59.74-.84 1-.28.28-.57.58-.25 1.13.33.55 1.46 2.41 3.14 3.9 2.16 1.92 3.98 2.52 4.54 2.8.56.28.89.23 1.21-.14.33-.37 1.4-1.63 1.77-2.19.37-.56.74-.47 1.25-.28.51.19 3.23 1.52 3.78 1.8.56.28.93.42 1.07.65.14.23.14 1.32-.33 2.64z" fill="#FFFFFF"/>
</svg>
